<?xml version="1.0" encoding="UTF-8" standalone="no"?>
<!-- Created with Inkscape (http://www.inkscape.org/) -->

<svg
   xmlns:dc="http://purl.org/dc/elements/1.1/"
   xmlns:cc="http://creativecommons.org/ns#"
   xmlns:rdf="http://www.w3.org/1999/02/22-rdf-syntax-ns#"
   xmlns:svg="http://www.w3.org/2000/svg"
   xmlns="http://www.w3.org/2000/svg"
   xmlns:sodipodi="http://sodipodi.sourceforge.net/DTD/sodipodi-0.dtd"
   xmlns:inkscape="http://www.inkscape.org/namespaces/inkscape"
   width="22"
   height="11"
   viewBox="0 0 22 11"
   id="svg2"
   version="1.1"
   inkscape:version="0.91 r13725"
   sodipodi:docname="crest.svg">
  <defs
     id="defs4" />
  <sodipodi:namedview
     id="base"
     pagecolor="#ffffff"
     bordercolor="#666666"
     borderopacity="1.0"
     inkscape:pageopacity="0.0"
     inkscape:pageshadow="2"
     inkscape:zoom="1.979899"
     inkscape:cx="274.32192"
     inkscape:cy="-6.4952436"
     inkscape:document-units="px"
     inkscape:current-layer="layer1"
     showgrid="false"
     inkscape:window-width="1920"
     inkscape:window-height="1036"
     inkscape:window-x="0"
     inkscape:window-y="0"
     inkscape:window-maximized="1"
     units="px" />
  <metadata
     id="metadata7">
    <rdf:RDF>
      <cc:Work
         rdf:about="">
        <dc:format>image/svg+xml</dc:format>
        <dc:type
           rdf:resource="http://purl.org/dc/dcmitype/StillImage" />
        <dc:title></dc:title>
      </cc:Work>
    </rdf:RDF>
  </metadata>
  <g
     inkscape:label="Layer 1"
     inkscape:groupmode="layer"
     id="layer1"
     transform="translate(0,-1041.3622)">
    <path
       style="fill:#a0a0a0;stroke:none;stroke-width:1px;stroke-linecap:butt;stroke-linejoin:miter;stroke-opacity:1"
       d="m 4.0167925,1052.1875 c -1.3349349,-0.3895 -2.7894777,-1.4455 -3.38071391,-2.4544 -0.59739656,-1.0194 -0.80561821,-2.6608 -0.4885817,-3.8514 0.46864119,-1.7601 1.86269251,-3.0543 3.90456371,-3.6251 0.6812897,-0.1905 1.0012331,-0.2112 3.2295539,-0.2092 2.6880651,0 4.0196195,0.1384 5.7449905,0.5867 3.621195,0.9409 6.191758,2.9518 7.753055,6.0652 0.423102,0.8437 1.025814,2.5291 1.150783,3.2181 l 0.06956,0.3834 -0.858674,-0.7396 c -1.933421,-1.6654 -4.090322,-2.5878 -6.663537,-2.8496 -1.043998,-0.1061 -1.597553,-0.086 -3.139881,0.1121 l -0.791472,0.1019 -0.28614,0.6116 c -0.5624772,1.2023 -1.995013,2.312 -3.4694042,2.6875 -0.7736429,0.197 -2.029233,0.1802 -2.7740993,-0.037 z"
       id="path3561"
       inkscape:connector-curvature="0" />
  </g>
  <g
     inkscape:groupmode="layer"
     id="layer2"
     inkscape:label="Layer 2"
     transform="translate(0,-1041.3622)" />
</svg>
